<svg xmlns="http://www.w3.org/2000/svg" xmlns:xlink="http://www.w3.org/1999/xlink" viewBox="0 0 94 72"><defs><linearGradient id="a" x1="14.89" y1="22.92" x2="14.9" y2="22.92" gradientUnits="userSpaceOnUse"><stop offset="0" stop-color="#fff"/><stop offset="0.65" stop-color="#fff"/><stop offset="1" stop-color="#cbccce"/></linearGradient></defs><title>icon-wiki-puzzle</title><path d="M24.64,72.24a55.08,55.08,0,0,0-1-10.66c-.77-3.65-3.58-6.1-4.9-7.16a7.93,7.93,0,0,0-5.54-1.68c-2.57.07-3.3.65-4.4,1.76C7.9,55.37,8,56.41,6.27,57S3.3,57,2,55.49.22,52.92-.29,49.63a10.35,10.35,0,0,1,1.44-7.26C2,41.17,4,40.3,6.83,40.44s3.39,1,5.07.92a8.88,8.88,0,0,0,3.77-1.29c.63-.34,1.75-1.31,1.12-4.8a47,47,0,0,0-1.68-7c-.65-2-2.08-6.36-2.08-6.36h0c7.45-.87,20.61-3.36,23.25-4.44s3.19-3,3.24-3.64.16-1.77-2.43-2.33A9.68,9.68,0,0,1,33,9.83,3.2,3.2,0,0,1,31.8,7.11c0-1.69,3.43-3.72,7.24-5a21.71,21.71,0,0,1,8.38-.73c4.16.36,2,4.19,2,4.19-.16.69-2,3.81,1.06,4.63,3.29.87,8.92-.74,11.08-1.43,1.77-.55,6.7-2.29,10-3.46l.62-.22a19.07,19.07,0,0,1,5.73,9.27c.78,2.77.17,4-1.11,4.31s-2.45,0-4.46.4-2.88.78-3.29,3.52,1.2,7.2,3.56,9.31,5,.83,5.9.49a5.81,5.81,0,0,0,3.58-4.33,1.78,1.78,0,0,1,1.82-1.54,3.41,3.41,0,0,1,1.82.25c.62.41,1.35,1.12,3,4a33,33,0,0,1,3.68,10.11,25.56,25.56,0,0,1,.52,5.75h0a155.25,155.25,0,0,1-15.77,7.56s-6.07,2.33-7.53,2.13S68.54,54.78,69,54a24.73,24.73,0,0,0,1.63-3.3c.67-1.62.43-3.53-.76-4.2s-2.67-1-7.52.2a27.45,27.45,0,0,0-8.2,3.1,13.56,13.56,0,0,0-3.93,3.66c-.57,1-1.2,2.1.27,3.36a28.81,28.81,0,0,0,3.33,2.24c1.7,1.2,2,1.36,2.07,3.13a3.56,3.56,0,0,1-1.64,2.86A45.14,45.14,0,0,1,40.17,71a125.38,125.38,0,0,1-14.58,1.36Z" fill="#930000"/><polygon points="14.89 22.92 14.9 22.92 14.9 22.92 14.89 22.92" fill="url(#a)"/><path d="M25.44,70.07h.14c3.76-.19,10.29-.74,10.29-.74A32.62,32.62,0,0,0,47.74,66.1s3.78-1.94,5.16-2.75a3.44,3.44,0,0,0,1.67-1.67,2.35,2.35,0,0,0-.1-1.67c-.41-.87-3.57-2.47-3.57-2.47s-2.81-1.5-2.36-4.1,3.74-5.72,7.58-7.2a40.08,40.08,0,0,1,10.35-2.76c3.33-.36,5.72,1.66,5.72,3.73a11.17,11.17,0,0,1-1.38,5,12,12,0,0,1-1.08,1.57c-.29.4.07.38.07.38,1.63,0,5.63-1.67,5.63-1.67A176.18,176.18,0,0,0,92.23,45l0,0A21.55,21.55,0,0,1,92,42.35a28.28,28.28,0,0,0-1.36-6.83c-.7-2.36-3.12-6.35-3.57-7.26-.69-1.42-1.33-2-2.18-1.91a5.42,5.42,0,0,1-1.1.12c-.36,0-.56.46-.66.91a7.17,7.17,0,0,1-2.36,3.87,8.68,8.68,0,0,1-5.2,1.81s-3.18.21-5.68-4.47S68,20.91,68.2,19.82a3.82,3.82,0,0,1,2.62-3c1.48-.31,2.39-.4,2.39-.4s2.4,0,3.42-.15c1.18-.15.61-2.15.61-2.15a18,18,0,0,0-5-9.21v0l-.14,0s-4.84,1.76-9.67,3.32A33.89,33.89,0,0,1,54.63,10a12.3,12.3,0,0,1-4.83-.57c-2-.83-2-2-2-3s1-3,1.33-4.18S47.66.85,47.66.85a21.52,21.52,0,0,0-7.79.63A20.27,20.27,0,0,0,34.45,4c-1.94,1.09-1.84,2-1.84,2a2.42,2.42,0,0,0,1.17,1.86,9.29,9.29,0,0,0,3.71,1.39c1.43.32,1.69.67,1.69.67,2.3,1.9.89,3.81.1,5.19-1.35,2.38-7.84,3.53-7.84,3.53a164.32,164.32,0,0,1-16.7,3.1c2.63,9,2.75,9.75,3.17,12.73s-.5,4.8-2.65,5.84-3.44,1.23-5.17.8a12.5,12.5,0,0,0-5.41-.67c-2.24.3-2.92,1.32-2.92,1.32S-.39,43.86,1,50.37C2,55,5,54.92,5,54.92s1,.1,1.79-1.29a5.18,5.18,0,0,1,3.44-2.83A10.36,10.36,0,0,1,17,51a13.6,13.6,0,0,1,5.91,5.29c1.64,2.87,2.75,7.39,2.53,13.79Z" fill="#f29400"/><path d="M58.32,31v-.85c.38-1.71.29-3.77.67-5.49.51-2.32-.22-4.58,2.11-5.15,0-.23.12-.32,0-.51s0-.08-.08-.17-.08-.05-.25-.08a12.61,12.61,0,0,1-3.3,1c-.66.16-1.36,0-1.85.34l-.26.08.09.51c1,.31,1.85-.07,2.28.76a8,8,0,0,1,.08,3.21c-.54,2.48-.31,5.32-.85,7.77-.18.85,0,2.5-.33,3.12v.17c-.51-.24-.85-.91-1.18-1.35-.76-1-1.87-1.79-2.63-2.78A9.29,9.29,0,0,0,51.3,29.8,24.83,24.83,0,0,1,52.24,25a9.2,9.2,0,0,1,.84-3,4.21,4.21,0,0,1,1.61-1,.71.71,0,0,0-.09-.43c0-.08-.05-.17-.08-.25a28.63,28.63,0,0,0-3.21,1,14.93,14.93,0,0,0-2.71.59c0,.2,0,.24.09.34s.05.17.08.25c3-.17,2.52,1.45,1.95,3.72-.18.69-.06,1.65-.43,2.19v.17h-.08A21,21,0,0,0,47.93,26L47,25.15a9.77,9.77,0,0,0-.59-.93c.05-.93.81-1.17,1.52-1.44a1.09,1.09,0,0,0-.25-.67c-2.2.32-4.11,1.56-6.59,1.69v.08H41a.74.74,0,0,0,.08.42v.17a10,10,0,0,1,1.78.09,5.9,5.9,0,0,1,2.27,2.11c.83,1.1,2.13,2,3,3.12a7.66,7.66,0,0,0,1.52,1.78A22,22,0,0,1,48.77,36c-.18.69-.07,1.57-.42,2.11-.05.15,0,.09-.08.17-.81-1.53-2.36-2.7-3.38-4.05-2-2.61-4.14-4.95-6.17-7.52a1.13,1.13,0,0,1,.17-.76,1.72,1.72,0,0,1,1.35-1c0-.26.08-.29-.08-.51a2.5,2.5,0,0,0-.09-.25,41.9,41.9,0,0,0-4.89,1.52c-.86.24-2,.12-2.62.59l-.25.08a1.23,1.23,0,0,0,.25.6,6.22,6.22,0,0,1,2,0c1.69.51,2.91,2.42,3.88,3.71.43.57,1.1,1,1.52,1.61,1.82,2.41,3.86,4.58,5.66,7,.7.94,1.65,1.76,2.28,2.78a1.08,1.08,0,0,0,.67-.17c.46-2,.71-4,1.27-6a17.26,17.26,0,0,0,.67-3c.7.25,1.27,1.29,1.7,1.86,1.32,1.75,3.18,3.2,4.39,5.06a.87.87,0,0,0,.59-.17c.38-2.86.74-5.73,1.11-8.6Z" fill="#0d6798"/></svg>