<svg xmlns="http://www.w3.org/2000/svg" viewBox="0 0 288 288"><title>illu-community</title><path d="M176.91,131.16l-9.4,12V143l.06-1,8.64-11.31Z" fill="#dfaf6e"/><path d="M166.14,129.2l-5.95,6.72-.17-1.06,5.77-6Z" fill="#dfaf6e"/><path d="M185.18,135.19l-5,6.86v-.63l4.59-6.47Z" fill="#dfaf6e"/><path d="M160.8,104.59l-4.4,8.11v-.09l-.08-.54,4-7.61Z" fill="#dfaf6e"/><path d="M167.68,166.11l-8.07-13h.15l.88.39,7.68,12Z" fill="#c19368"/><path d="M173.21,156.66l-4.28-7.9,1.06.2,3.57,7.45Z" fill="#c19368"/><path d="M161.05,172.46l-4.77-7a.14.14,0,0,1,.09,0l.51.22,4.5,6.53Z" fill="#c19368"/><path d="M198.18,160.06l-6.11-6.91h.08l.55.09,5.77,6.39Z" fill="#c19368"/><path d="M143.7,134.36l12.1,9.27h-.16l-1,0-11.39-8.53Z" fill="#dfaf6e"/><path d="M141.82,145.08l6.77,5.95-1.06.18-5.95-5.71Z" fill="#dfaf6e"/><path d="M147.64,126l6.89,4.92h-.63l-6.51-4.52Z" fill="#dfaf6e"/><path d="M117.24,150.72l8.14,4.31h-.08l-.55.1-7.64-3.93Z" fill="#dfaf6e"/><path d="M301.14,47.74s-15.08,12-34.77,25.57C239.8,91.55,205,111.77,199.19,120.12c-4.81,6.92-17.73,31.12-17.73,31.12s-10.92,21.66-13.38,23.63c-1.59,1.49-4.79-.48-4.07-3.44.85-3.47,10.5-23.81,10.39-27l-12.83,15c-1.77,2.2-3.55,4.37-5.35,6.53-1.39,1.67-2.77,3.33-4.19,5s-2.93,4.28-5.08,4.74a3.65,3.65,0,0,1-4.21-1.44c-2.62-3.27,2.27-7.28,4-9.76,2.25-3.2,4.51-6.39,6.75-9.6,2.08-3,4.17-6,6.15-9.07.73-1.12,2.47-3.07,2.43-4.49a.27.27,0,0,0-.27.06A100.57,100.57,0,0,0,154,148c-3.16,2.9-7.84,6.66-7.84,6.66l-5.22,4.07c-1.21.93-2.39,1.87-3.61,2.8-1.51,1.15-2.84,2.64-4.63,3.39a4.66,4.66,0,0,1-2.55.41,3.71,3.71,0,0,1-2.94-2.61c-1-3.45,3.45-5.76,5.41-7.82l13-12.65s4.6-3.78,6.1-4.65,6-4.65,4.88-4.93-11.28,5.74-11.28,5.74l-13.62,10.05c-.74.52-1.44.87-4.32,2.62a3,3,0,0,1-4.23-.48,2.88,2.88,0,0,1-.39-.65c-.88-1.44,1.24-5.09,2.85-6.66l9.86-9.77,12.16-9.2s5.3-4.08,6.69-6.94c.52-1.1,5.28-9.65,4.65-8.67-2,3.18-9.26,7.47-9.26,7.47s-5.13,6.25-6,7.1-4.5,1.61-6.69.66a2.47,2.47,0,0,1-1.3-3.25,2.31,2.31,0,0,1,.51-.76l4.59-7.3c.79-.82,2.45-3.54,3.44-4.07,4-3.25,8.09-6.46,12-9.83a5.4,5.4,0,0,1,3.36-1.64c6.11-1.07,12.05-2.09,18.22-2.61,5.29-.45,9.47-3.68,13.87-6.36q7.62-4.59,15.19-9.28c5.48-3.4,11-6.82,16.33-10.38C238,58.7,271.34,29.08,271.34,29.08Z" fill="#f1bd80"/><path d="M128.32,147.56a5.16,5.16,0,0,1-2,3.19,2.06,2.06,0,0,1-2.57-3.08C125.15,145.53,128.05,143.81,128.32,147.56Z" fill="#fff" opacity="0.23" style="isolation:isolate"/><path d="M168.51,172.78c0,.16-1.11,2.1-2,1.81-1.14-.35-2.53-1.59-1.18-3.17C167.47,168.92,168.81,170.05,168.51,172.78Z" fill="#fff" opacity="0.23" style="isolation:isolate"/><path d="M134.51,160.63c0,1.23-1.54,2.7-2.39,3.6-1.13,1.21-4.54-.84-3.56-3.52C129.41,158.33,134.46,157.07,134.51,160.63Z" fill="#fff" opacity="0.23" style="isolation:isolate"/><path d="M149.47,169.9c.29,1.15-.86,3-1.48,4-.83,1.44-4.62.23-4.27-2.6C144,168.84,148.62,166.44,149.47,169.9Z" fill="#fff" opacity="0.23" style="isolation:isolate"/><path d="M136.1,122.83a2.79,2.79,0,0,1,.29-2.32l2.48-4.06a.29.29,0,0,1,.16.1,3.9,3.9,0,0,1,.71,5.46A2.65,2.65,0,0,1,136.1,122.83Z" fill="#fff" opacity="0.23" style="isolation:isolate"/><path d="M215.87,108.06a1.65,1.65,0,0,0,1.91.19c17-9.8,56.32-37.91,67.9-46.9,31.49-24.44,34.76-36,36.93-44.16,1.73-6.5-14.45-33.63-57.95,4.85-6.1,5.39-39,36.6-62.55,59.51C198.07,89.41,209.55,102.63,215.87,108.06Z" fill="#2a0064"/><path d="M238.6,302.07a232.65,232.65,0,0,1-23.32-35.53c-15.22-28.43-29.77-67.06-37.43-73.75-6.36-5.54-29-21-29-21s-20.32-13.22-22-15.89c-1.33-1.69,1-4.76,3.9-3.57,3.35,1.26,22.52,13.1,25.72,13.29l-13.55-14.41c-2-2-3.95-4-5.95-6-1.5-1.56-3-3.12-4.48-4.77s-3.93-3.38-4.16-5.57a3.65,3.65,0,0,1,1.9-4c3.57-2.25,7,3.06,9.26,5.06q4.4,3.89,8.8,7.76c2.75,2.38,5.5,4.76,8.34,7.15,1,.84,2.8,2.79,4.2,2.9a.26.26,0,0,0,0-.27,101.68,101.68,0,0,0-5.71-8.5c-2.52-3.49-5.72-8.51-5.72-8.51l-3.47-5.64c-.79-1.3-1.62-2.59-2.38-3.9-1-1.64-2.31-3.12-2.87-5a4.79,4.79,0,0,1-.1-2.6,3.7,3.7,0,0,1,2.9-2.64c3.57-.59,5.35,4.06,7.15,6.24l11.14,14.35s3.2,5,3.91,6.55,3.89,6.56,4.31,5.44-4.46-11.85-4.46-11.85L157,122.72c-.43-.79-.69-1.53-2.08-4.59a3,3,0,0,1,1-4.15,3,3,0,0,1,.7-.32c1.53-.69,4.9,1.86,6.27,3.57l8.63,10.88,7.82,13.1s3.47,5.71,6.13,7.38c1,.63,9,6.31,8.07,5.57-2.92-2.38-6.4-10-6.4-10s-5.66-5.79-6.46-6.8-1.11-4.65.08-6.73a2.49,2.49,0,0,1,3.4-.93,2.57,2.57,0,0,1,.69.58l6.75,5.37c.72.88,3.24,2.84,3.57,3.9,2.44,3.82,5,7.58,7.37,11.43,2.15,3.43,8.24,22.25,8.28,24.84.1,6.1,3.92,12.1,6.38,17.55a105.11,105.11,0,0,0,9.89,17.86c12.77,17.86,25.09,36.23,39.29,52.87Z" fill="#c19368"/><path d="M158.33,119.34a5.11,5.11,0,0,1-2.92-2.38,2.05,2.05,0,0,1,3.39-2.19C160.7,116.41,162.1,119.49,158.33,119.34Z" fill="#fff" opacity="0.23" style="isolation:isolate"/><path d="M128.87,156.52c-.18,0-2-1.33-1.58-2.22.49-1.11,1.87-2.38,3.28-.82C132.81,155.9,131.55,157.11,128.87,156.52Z" fill="#c19368" opacity="0.23" style="isolation:isolate"/><path d="M144.67,124.06c-1.19-.12-2.52-1.82-3.32-2.76-1.07-1.27,1.34-4.43,3.91-3.17C147.51,119.25,148.22,124.4,144.67,124.06Z" fill="#fff" opacity="0.23" style="isolation:isolate"/><path d="M133.83,137.93c-1.2.17-2.87-1.19-3.87-1.92-1.34-1,.27-4.6,3.06-4C135.48,132.57,137.36,137.43,133.83,137.93Z" fill="#fff" opacity="0.23" style="isolation:isolate"/><path d="M182.08,129.79a2.79,2.79,0,0,1,2.27.53l3.75,2.85-.11.15a3.89,3.89,0,0,1-5.5.12A2.65,2.65,0,0,1,182.08,129.79Z" fill="#c19368" opacity="0.23" style="isolation:isolate"/><path d="M206.15,229.73c-.53.45-7.8,6.38-7.55,7,7,18.36,13.21,26.43,20.25,39.29,19.12,35,33.34,35.54,41,39,6.14,2.71,35.33-6.57,4.25-55.64-4.35-6.87-10.94-13.64-29.77-40.48C227.17,213.59,212.51,224.39,206.15,229.73Z" fill="#900"/><path d="M11.51,19s33.4,24.63,51.34,40.39c24.24,21.27,52.4,50,61.93,53.58,7.89,3,34.53,9.53,34.53,9.53s23.68,5.24,26.2,7.15c1.83,1.1.7,4.76-2.39,4.76-3.57,0-25.66-4.3-28.74-3.41l17.74,8.73c2.57,1.17,5.11,2.36,7.65,3.57,2,.93,3.91,1.86,5.84,2.83s4.87,1.79,5.85,3.76a3.66,3.66,0,0,1-.36,4.44c-2.53,3.35-7.62-.42-10.45-1.49-3.66-1.4-7.3-2.81-11-4.18-3.42-1.28-6.83-2.56-10.3-3.72-1.26-.43-3.57-1.65-4.95-1.2a.23.23,0,0,0,.12.25,99.33,99.33,0,0,0,8.33,6c3.57,2.38,8.34,5.95,8.34,5.95l5.22,4.06c1.19.94,2.39,1.86,3.58,2.81,1.48,1.19,3.26,2.11,4.44,3.66a4.74,4.74,0,0,1,1,2.38,3.69,3.69,0,0,1-1.8,3.49c-3.09,1.8-6.43-1.93-8.92-3.31l-15.48-9.53s-4.76-3.57-6-4.76-6-4.76-6-3.57,8.34,9.52,8.34,9.52l13.1,10.72c.69.6,1.19,1.19,3.57,3.57a3,3,0,0,1,.52,4.25,3.2,3.2,0,0,1-.52.52c-1.19,1.19-5.24,0-7.14-1.19l-11.91-7.15-11.91-9.53s-5.26-4.13-8.33-4.76c-1.2-.24-10.64-2.75-9.53-2.38,3.57,1.19,9.53,7.14,9.53,7.14s7.32,3.43,8.43,4.1,2.66,4,2.28,6.32a2.49,2.49,0,0,1-2.9,2,2.64,2.64,0,0,1-.77-.28l-8.2-2.66c-1-.57-4-1.51-4.76-2.38-4.15-3.11-8.26-6.25-12.49-9.23a6.49,6.49,0,0,1-1.66-1.43,7.74,7.74,0,0,1-.79-1.44c-2.54-5.64-5-11.15-7-17-1.74-5-5.95-8.25-9.53-11.91q-6.34-6.25-12.75-12.43c-4.63-4.48-9.3-8.93-14.07-13.27-13.1-11.9-68-49.91-68-49.91Z" fill="#f1bd80"/><path d="M168.83,174.85a5.08,5.08,0,0,1,3.58,1.19,2.06,2.06,0,0,1-2.38,3.24C167.64,178.42,165.26,176,168.83,174.85Z" fill="#fff" opacity="0.23" style="isolation:isolate"/><path d="M183.37,129.69c.17,0,2.31.56,2.27,1.52-.06,1.2-.93,2.85-2.79,1.92C179.9,131.66,180.61,130.07,183.37,129.69Z" fill="#fff" opacity="0.23" style="isolation:isolate"/><path d="M180,165.64c1.19-.31,3,.82,4.07,1.42,1.46.8.31,4.61-2.53,4.33C179,171.14,176.53,166.51,180,165.64Z" fill="#fff" opacity="0.23" style="isolation:isolate"/><path d="M185.27,148.85c1-.56,3.11.11,4.3.44,1.59.44,1.35,4.42-1.48,4.76C185.6,154.44,182.12,150.55,185.27,148.85Z" fill="#fff" opacity="0.23" style="isolation:isolate"/><path d="M142.94,173.4a2.73,2.73,0,0,1-2.31.3l-4.54-1.4v-.18a3.9,3.9,0,0,1,5.09-2.1l.14.06A2.65,2.65,0,0,1,142.94,173.4Z" fill="#fff" opacity="0.23" style="isolation:isolate"/><path d="M108.56,100.68a1.64,1.64,0,0,0-.27-1.89C94.86,84.5,40.51,39.63,29.1,30.42c-31-25-43-25.58-51.44-25.83-6.77-.2-29.39,21.76,18,55.3,6.64,4.69,62.56,42.61,90.18,60.26C94.48,122.34,104.71,108,108.56,100.68Z" fill="#1e5645"/><path d="M83.29,306.55s20-18.44,27.2-41.2c10.05-31.82,21.12-61.48,28.17-68.82,5.85-6.07,22.63-27.65,22.63-27.65s19.05-14.94,20.54-17.76c1.19-1.78-1.42-4.59-4.21-3.26-3.22,1.54-21.29,15-24.46,15.48,4.77-6.06,13.31-8.2,17.41-14.79,1.43-2.3,3.11-5.06,4.42-7.44,1.8-3.27,5.37-8.07,2-11.79-.93-1-3.45-.95-4.91-.13-3.39,1.93-5.26,6.57-7.29,9.92-1.83,3-3.77,5.73-7.3,6.86a16.27,16.27,0,0,0-5.65,2.45c-1.29,1.09-2.39,3.16-4.15,3.47a.37.37,0,0,1,0-.29c2.88-8.18,6.27-16.21,9.53-24.31,1.19-2.86,2.3-5.72,3.7-8.46.69-1.36,1.72-4.61-.26-6.39-1.77-1.6-3.13-2.1-6.06-.44-2.07,1.19-3.73,6-4.84,8.55s-2.75,5.14-3.87,7.76a42.59,42.59,0,0,0-2.38,6.75c-.64,2.72-.76,5.56-1.72,8.18a13.29,13.29,0,0,1-3.68,5.34c1.68-10.17,6.65-19.45,11.3-28.65a13.09,13.09,0,0,0,1.69-4,5.72,5.72,0,0,0-1.29-4.6c-1.53-1.51-4.15-1.34-6-.22-5.21,3.16-6.47,11.11-9,16.29l-6.71,13.73s-3,5.95-5.47,7.89c-.93.72-11.75,11.23-10.91,10.42,2.72-2.62-1-5.23-1-5.23s-.45-8.74.25-9.82c2-3,2.67-8.25,3.19-11.78a6,6,0,0,0-.76-4.38,5,5,0,0,0-3.44-1.85,4.74,4.74,0,0,0-2.18.25,4.93,4.93,0,0,0-2.48,2.45c-2.3,4.57-2.61,11.11-3.26,16.12A110.79,110.79,0,0,0,101,161.29c.08,4.77,1.12,9.4,1.52,14.12.6,5.27.69,11.16-1,16.05C94.33,212,84.18,230.93,73.32,249.71,71.89,252.25,51.64,286,51,285.59Z" fill="#f1bd80"/><path d="M104.87,130.39a10.66,10.66,0,0,0-1.36,5.05h.19a4.49,4.49,0,0,0,4.85-3.75c.21-1.09.6-3.18-.37-3.5C105.21,127.21,105.59,129.13,104.87,130.39Z" fill="#fff" opacity="0.23" style="isolation:isolate"/><path d="M143.57,116.41c-.5-1.49.27-2.56,1-4a3.13,3.13,0,0,1,5.8,1.61C150.76,117.27,145,120.85,143.57,116.41Z" fill="#fff" opacity="0.23" style="isolation:isolate"/><path d="M177.48,151.22c0-.9.61-1.36,1.26-2a1.82,1.82,0,0,1,2.91,1.92C181.29,153,177.49,153.94,177.48,151.22Z" fill="#fff" opacity="0.23" style="isolation:isolate"/><path d="M154.8,117.69c-.46-1.37.25-2.38.89-3.71a2.9,2.9,0,0,1,5.35,1.48C161.42,118.52,156.14,121.81,154.8,117.69Z" fill="#fff" opacity="0.23" style="isolation:isolate"/><path d="M172.28,134.92c-.46-1.37.26-2.38.9-3.71a2.89,2.89,0,0,1,5.34,1.48C178.9,135.72,173.62,139,172.28,134.92Z" fill="#fff" opacity="0.23" style="isolation:isolate"/><path d="M87.55,238.48c-.67-.25-7.14-2.17-7.64-1.62C67.36,252,42.61,284.4,52.78,301c3.51,5.74,27.94,27.49,45.8-9.43,3.57-7.31,9.52-14.29,16.67-33.34C116.31,249.37,95.32,241.39,87.55,238.48Z" fill="#0d6798"/><path d="M-2,156s18.35-12.43,42.2-13.29c33.34-1.19,69.65-5.88,78.59-10.71,7.42-4,32.69-14.45,32.69-14.45s19.5-14.42,22.62-15.06c2-.66,4.05,2.6,2,4.93-2.38,2.69-20.1,16.53-21.44,19.43,7.15-3,11.47-10.63,18.91-12.82,2.6-.78,5.72-1.66,8.34-2.28,3.64-.85,9.22-3,11.91,1.19.75,1.2,0,3.58-1.19,4.77-2.75,2.76-7.74,3.32-11.49,4.38-3.41,1-6.54,2.11-8.57,5.2a16.25,16.25,0,0,1-3.88,4.77c-1.38,1-3.67,1.41-4.44,3.07a.34.34,0,0,0,.27.07c8.66-.6,17.29-1.71,26-2.69,3.06-.35,6.12-.68,9.13-1.31,1.49-.31,4.89-.42,6.09,2,1.07,2.14,1.19,3.58-1.2,6-1.67,1.68-6.72,2-9.52,2.38s-5.69,1.27-8.52,1.65a41.67,41.67,0,0,1-7.14.56c-2.79-.1-5.55-.76-8.34-.52a13.06,13.06,0,0,0-6.12,2.12c10.24,1.1,20.52-1.19,30.63-3.24a12.9,12.9,0,0,1,4.28-.57,5.71,5.71,0,0,1,4.09,2.46c1,1.89.19,4.36-1.38,5.84-4.44,4.17-12.43,3.26-18.09,4.29l-15,2.72S162.9,158,160.4,160c-.92.7-14,8.33-12.94,7.73,3.25-1.92,4.76,2.38,4.76,2.38s8.34,2.77,9.53,2.38c3.45-1.11,8.67-.37,12.21,0a5.92,5.92,0,0,1,4,1.91,4.91,4.91,0,0,1,.86,3.81,4.56,4.56,0,0,1-.82,2,4.8,4.8,0,0,1-3.08,1.79c-5,1-11.39-.45-16.41-1.19a110.77,110.77,0,0,1-15.8-3.17c-4.52-1.33-8.76-3.57-13.19-5.23-4.92-2-10.59-3.71-15.73-3.32q-8.88.67-17.76,1.44-9.61.84-19.24,1.91c-17.58,2.12-59.21,15.51-59.21,15.51Z" fill="#704c38"/><path d="M173.55,182.19a10.76,10.76,0,0,1-5.23,0V182a4.51,4.51,0,0,1,4.91-3.67c1.12.1,3.24.26,3.27,1.3C176.65,182.69,174.94,181.86,173.55,182.19Z" fill="#fff" opacity="0.23" style="isolation:isolate"/><path d="M197.34,148.65c1.3.87,2.55.4,4.15.12a3.14,3.14,0,0,0,0-6C198.47,141.5,193.46,146,197.34,148.65Z" fill="#fff" opacity="0.23" style="isolation:isolate"/><path d="M172.85,106.66c.87.25,1.47-.23,2.3-.67a1.81,1.81,0,0,0-1.08-3.32C172.17,102.5,170.24,105.91,172.85,106.66Z" fill="#fff" opacity="0.23" style="isolation:isolate"/><path d="M199.08,137.47c1.19.79,2.38.38,3.81.12a2.88,2.88,0,0,0,0-5.54C200.08,130.87,195.51,135.07,199.08,137.47Z" fill="#fff" opacity="0.23" style="isolation:isolate"/><path d="M187.17,116c1.19.8,2.38.38,3.81.12a2.88,2.88,0,0,0,0-5.54C188.17,109.44,183.6,113.64,187.17,116Z" fill="#fff" opacity="0.23" style="isolation:isolate"/><path d="M49.24,148.74c-.19-.68-2.51-7.06-3.22-7.14-19.59-1.19-60.39-1.87-67.72,16.15C-24.2,164-27.28,196.58,13,189.14c8-1.49,17.16-.8,36.74-6.34C57.56,178.42,51.51,156.73,49.24,148.74Z" fill="#f9bb1e"/></svg>