<svg xmlns="http://www.w3.org/2000/svg" viewBox="0 0 288 288"><title>illu-konto</title><path d="M65.78,187.42c-.82-9.68,0-98.37,0-101.6s8.86-12.1,8.86-12.1H202.85l12.9,3.22,1.62,112.88-3.23.8-141.89-.8Z" fill="#34333e"/><polygon points="73.84 179.35 73.98 85.27 75.36 82.59 205.01 82.86 208.5 181.77 77.87 181.77 73.84 179.35" fill="#c2c1bb"/><path d="M72.22,189s136.28,1.62,138.7.82,29,29,29,29S48,221.28,48,218.86,72.22,189,72.22,189Z" fill="#e6e6e6"/><path d="M240.07,218.86c.8,3.23,1.62,5.81,0,6.63s-191.25,0-192-.82,0-5.81,0-5.81Z" fill="#fff"/><polygon points="193.72 58.58 198.05 184.82 188.68 182.22 192.28 58.58 193.72 58.58" fill="#34333e" opacity="0.2" style="isolation:isolate"/><polygon points="96.1 188.67 94.17 190.6 96.34 191.32 185.07 191.32 186.52 190.6 185.07 188.43 96.1 188.67" fill="#151625"/><polygon points="66.42 203.38 61.72 207.46 63.02 208.1 77.81 208.04 79.77 207.46 82.11 203.38 66.42 203.38" fill="#34333e"/><polygon points="217.88 203.38 222.58 207.46 221.28 208.1 206.5 208.04 204.53 207.46 202.18 203.38 217.88 203.38" fill="#34333e"/><polygon points="84.47 203.38 82.11 208.04 93.89 208.63 97.02 208.04 97.81 203.38 84.47 203.38" fill="#34333e"/><polygon points="199.83 203.38 202.97 208.04 192.96 208.63 190.29 208.04 189.63 203.38 199.83 203.38" fill="#34333e"/><polygon points="130.77 203.38 130.77 208.04 140.18 208.04 144.11 208.04 143.32 203.38 130.77 203.38" fill="#34333e"/><polygon points="144.9 203.38 145.68 207.46 147.25 208.04 159.03 208.04 157.45 203.38 144.9 203.38" fill="#34333e"/><polygon points="100.95 203.38 99.38 205.13 99.38 208.63 112.72 208.63 113.51 206.3 113.51 203.38 109.58 203.38 100.95 203.38" fill="#34333e"/><polygon points="174.72 203.38 174.72 205.13 176.28 208.04 188.84 208.04 188.06 206.3 186.48 203.38 183.34 203.38 174.72 203.38" fill="#34333e"/><polygon points="115.86 203.38 115.07 204.75 115.07 208.04 127.63 208.04 128.41 206.1 128.41 203.38 115.86 203.38" fill="#34333e"/><polygon points="172.36 203.38 172.36 204.75 173.14 208.04 160.59 208.04 160.59 206.1 159.81 203.38 172.36 203.38" fill="#34333e"/><polygon points="60.99 210.6 55.95 214.68 57.35 215.32 73.18 215.26 75.29 214.68 77.81 210.6 60.99 210.6" fill="#34333e"/><polygon points="223.31 210.6 228.35 214.68 226.95 215.32 211.12 215.26 209.01 214.68 206.48 210.6 223.31 210.6" fill="#34333e"/><polygon points="80.33 210.6 77.81 215.26 90.43 215.84 93.79 215.26 94.63 210.6 80.33 210.6" fill="#34333e"/><polygon points="203.96 210.6 207.33 215.26 196.6 215.84 193.75 215.26 193.03 210.6 203.96 210.6" fill="#34333e"/><polygon points="97.99 210.6 96.31 212.34 96.31 215.84 110.61 215.84 111.45 213.51 111.45 210.6 107.25 210.6 97.99 210.6" fill="#34333e"/><polygon points="177.05 210.6 177.05 212.34 178.73 215.26 192.19 215.26 191.35 213.51 189.67 210.6 186.31 210.6 177.05 210.6" fill="#34333e"/><polygon points="113.98 210.6 113.13 211.96 113.13 215.26 174.97 215.12 175.04 213.32 173.6 210.6 113.98 210.6" fill="#34333e"/><polygon points="74.7 193.48 72.54 195.23 86.97 195.23 87.69 193.48 74.7 193.48" fill="#34333e"/><polygon points="207.43 193.48 209.59 195.23 195.18 195.23 194.44 193.48 207.43 193.48" fill="#34333e"/><polygon points="89.12 193.48 88.4 195.23 99.95 195.23 101.39 193.48 89.12 193.48" fill="#34333e"/><polygon points="130.25 193.48 130.25 195.23 141.79 195.23 141.07 193.48 130.25 193.48" fill="#34333e"/><polygon points="170.65 193.48 170.65 195.23 182.19 195.23 181.47 193.48 170.65 193.48" fill="#34333e"/><polygon points="103.55 193.48 102.83 194.06 102.11 195.23 115.1 195.23 115.1 193.48 103.55 193.48" fill="#34333e"/><polygon points="192.53 193.48 193.13 194.06 193.72 195.23 182.91 195.23 182.91 193.48 192.53 193.48" fill="#34333e"/><polygon points="157.66 193.48 156.94 194.06 156.22 195.23 169.2 195.23 169.2 193.48 157.66 193.48" fill="#34333e"/><polygon points="117.26 193.48 116.54 194.06 116.54 195.23 128.26 195.23 128.8 194.65 128.8 193.48 117.26 193.48" fill="#34333e"/><polygon points="71.82 196.97 67.49 201.05 68.69 201.69 82.27 201.64 84.08 201.05 86.25 196.97 71.82 196.97" fill="#34333e"/><polygon points="211.04 196.97 215.37 201.05 214.17 201.69 200.58 201.64 198.77 201.05 196.62 196.97 211.04 196.97" fill="#34333e"/><polygon points="88.4 196.97 86.25 201.64 97.06 202.22 99.95 201.64 100.67 196.97 88.4 196.97" fill="#34333e"/><polygon points="194.44 196.97 197.34 201.64 188.13 202.22 185.68 201.64 185.07 196.97 194.44 196.97" fill="#34333e"/><polygon points="130.97 196.97 130.97 201.64 139.62 201.64 143.23 201.64 142.51 196.97 130.97 196.97" fill="#34333e"/><polygon points="143.95 196.97 144.67 201.05 146.12 201.64 156.94 201.64 155.5 196.97 143.95 196.97" fill="#34333e"/><polygon points="103.55 196.97 102.11 198.73 102.11 202.22 114.37 202.22 115.1 199.88 115.1 196.97 111.49 196.97 103.55 196.97" fill="#34333e"/><polygon points="171.37 196.97 171.37 198.73 172.81 201.64 184.35 201.64 183.63 199.88 182.19 196.97 179.3 196.97 171.37 196.97" fill="#34333e"/><polygon points="117.26 196.97 116.54 198.33 116.54 201.64 128.08 201.64 128.8 199.7 128.8 196.97 117.26 196.97" fill="#34333e"/><polygon points="169.2 196.97 169.2 198.33 169.93 201.64 158.38 201.64 158.38 199.7 157.66 196.97 169.2 196.97" fill="#34333e"/><polygon points="143.23 193.48 142.51 194.06 143.23 195.23 154.77 195.23 155.5 194.65 155.5 193.48 143.23 193.48" fill="#34333e"/><polygon points="91.29 181.94 89.86 58.58 185.92 55.18 193.97 58.4 194.02 181.77 91.29 181.94" fill="#fff"/><polygon points="97.78 67.96 97.78 70.12 188.68 70.12 188.68 67.24 97.78 67.96" fill="#c2c1bb"/><polygon points="179.3 73.73 179.3 75.9 97.78 75.9 97.78 73.01 179.3 73.73" fill="#c2c1bb"/><polygon points="97.78 79.5 97.78 81.67 188.68 81.67 188.68 78.78 97.78 79.5" fill="#c2c1bb"/><polygon points="184.35 85.27 184.35 87.44 97.78 87.44 97.78 84.55 184.35 85.27" fill="#c2c1bb"/><polygon points="97.78 91.77 97.78 93.93 156.22 93.93 156.22 91.05 97.78 91.77" fill="#c2c1bb"/><polygon points="188.68 97.54 188.68 99.7 97.78 99.7 97.78 96.82 188.68 97.54" fill="#c2c1bb"/><polygon points="97.78 103.31 97.78 105.48 185.8 105.48 185.8 102.59 97.78 103.31" fill="#c2c1bb"/><polygon points="179.3 109.08 179.3 111.25 97.78 111.25 97.78 108.36 179.3 109.08" fill="#c2c1bb"/><polygon points="97.78 119.9 97.78 122.07 185.8 122.07 185.8 119.18 97.78 119.9" fill="#c2c1bb"/><polygon points="181.6 125.68 181.6 127.83 97.78 127.83 97.78 124.94 181.6 125.68" fill="#c2c1bb"/><polygon points="132.84 132.86 132.84 134.97 186.5 134.97 186.5 132.16 132.84 132.86" fill="#c2c1bb"/><polygon points="183.79 138.49 183.79 140.59 132.84 140.59 132.84 137.78 183.79 138.49" fill="#c2c1bb"/><polygon points="132.84 144.1 132.84 146.21 179.19 146.21 179.19 143.4 132.84 144.1" fill="#c2c1bb"/><polygon points="185.51 149.72 185.51 151.83 132.84 151.83 132.84 149.03 185.51 149.72" fill="#c2c1bb"/><polygon points="132.84 156.75 132.84 158.85 184.12 158.85 184.12 156.05 132.84 156.75" fill="#c2c1bb"/><polygon points="188.68 162.46 188.68 164.62 97.78 164.62 97.78 161.74 188.68 162.46" fill="#c2c1bb"/><polygon points="188.68 168.95 188.68 171.12 97.78 171.12 97.78 168.23 188.68 168.95" fill="#c2c1bb"/><polygon points="125.92 132.88 127.36 135.76 127.36 155.97 100.67 156.69 98.5 155.24 97.78 132.88 125.92 132.88" fill="#e6e6e6"/><path d="M155.5,106.92c0-2.17-.73-17.32-.73-17.32l2.89.72,12.26,9.39-5.77,2.89,5,7.21L165.6,112l-5-7.94Z" fill="#01a9ce"/></svg>